<svg width="88" height="48" viewBox="0 0 88 48" fill="none" xmlns="http://www.w3.org/2000/svg" className="dollar">
<path opacity="0.1" fill-rule="evenodd" clip-rule="evenodd" d="M59.6266 67.1546C65.6081 56.0445 63.8746 42.5518 55.1903 33.3327L35.6332 12.5798C33.1076 9.8848 32.8199 5.88453 34.9726 2.79855C37.3056 -0.492554 41.9323 -1.2226 45.4108 0.785746L59.3018 8.80572C62.8036 10.8275 65.3844 13.8017 66.9667 17.2198C68.6311 20.8708 72.5646 22.8945 76.442 21.8555L81.6363 20.4637C86.2819 19.2189 88.8652 14.1553 87.045 9.70315C84.0909 2.55558 79.0472 -3.75765 72.2785 -8.31489L75.0098 -13.0457C77.2324 -16.8953 75.919 -21.7969 72.0694 -24.0195L67.4313 -26.6973C63.5817 -28.9199 58.6801 -27.6065 56.4575 -23.7569L53.6726 -18.9333C39.8559 -24.9933 22.908 -20.0601 15.6072 -6.55777C9.62564 4.55233 11.3591 18.045 20.0435 27.2641L39.6006 48.0171C42.6354 51.2225 42.4284 56.6687 38.513 59.5409C35.9904 61.393 32.5362 61.3776 29.7998 59.7977L15.9319 51.7911C12.4302 49.7694 9.84941 46.7952 8.26702 43.377C6.60264 39.726 2.66912 37.7024 -1.20828 38.7413L-6.40255 40.1331C-11.0481 41.3779 -13.6315 46.4415 -11.788 50.9071C-8.8571 58.0413 -3.84998 64.3643 2.9553 68.9117L0.223947 73.6426C-1.99862 77.4921 -0.685232 82.3938 3.16436 84.6163L7.80243 87.2941C11.652 89.5167 16.5537 88.2033 18.7762 84.3537L21.5477 79.5533C35.3778 85.5901 52.3258 80.6569 59.6266 67.1546Z" fill="url(#paint0_linear_115_1945)"/>
<defs>
<linearGradient id="paint0_linear_115_1945" x1="37.2744" y1="-44.1084" x2="101.536" y2="68.3884" gradientUnits="userSpaceOnUse">
<stop stop-color="#FFDE6B"/>
<stop offset="1" stop-color="#F99423"/>
</linearGradient>
</defs>
</svg>
