<svg width="16" height="16" viewBox="0 0 16 16" fill="none" xmlns="http://www.w3.org/2000/svg">
<path d="M9.375 11.8203V12.7578C9.375 13.8266 10.8125 14.6328 12.6875 14.6328C14.5625 14.6328 16 13.8266 16 12.7578V11.8203H9.375Z" fill="#FEA832"/>
<path d="M9.375 11.8203V12.7578C9.375 13.8266 10.8125 14.6328 12.6875 14.6328V11.8203H9.375Z" fill="#FE9923"/>
<path d="M9.375 10.8828V11.8203C9.375 12.8891 10.8125 13.6953 12.6875 13.6953C14.5625 13.6953 16 12.8891 16 11.8203V10.8828H9.375Z" fill="#FEA832"/>
<path d="M9.375 10.8828V11.8203C9.375 12.8891 10.8125 13.6953 12.6875 13.6953V10.8828H9.375Z" fill="#FE9923"/>
<path d="M9.375 10.8828V11.8203C9.375 12.8891 10.8125 13.6953 12.6875 13.6953C14.5625 13.6953 16 12.8891 16 11.8203V10.8828H9.375Z" fill="#FEDB41"/>
<path d="M9.375 10.8828V11.8203C9.375 12.8891 10.8125 13.6953 12.6875 13.6953V10.8828H9.375Z" fill="#FFCC33"/>
<path d="M9.375 9.94531V10.8828C9.375 11.9516 10.8125 12.7578 12.6875 12.7578C14.5625 12.7578 16 11.9516 16 10.8828V9.94531H9.375Z" fill="#FEA832"/>
<path d="M9.375 9.94531V10.8828C9.375 11.9516 10.8125 12.7578 12.6875 12.7578V9.94531H9.375Z" fill="#FE9923"/>
<path d="M9.375 9.00781V9.94531C9.375 11.0141 10.8125 11.8203 12.6875 11.8203C14.5625 11.8203 16 11.0141 16 9.94531V9.00781H9.375Z" fill="#FEDB41"/>
<path d="M9.375 9.00781V9.94531C9.375 11.0141 10.8125 11.8203 12.6875 11.8203V9.00781H9.375Z" fill="#FFCC33"/>
<path d="M9.375 8.07031V9.00781C9.375 10.0766 10.8125 10.8828 12.6875 10.8828C14.5625 10.8828 16 10.0766 16 9.00781V8.07031H9.375Z" fill="#FEA832"/>
<path d="M9.375 8.07031V9.00781C9.375 10.0766 10.8125 10.8828 12.6875 10.8828V8.07031H9.375Z" fill="#FE9923"/>
<path d="M9.375 7.13281V8.07031C9.375 9.13906 10.8125 9.94531 12.6875 9.94531C14.5625 9.94531 16 9.13906 16 8.07031V7.13281H9.375Z" fill="#FEDB41"/>
<path d="M9.375 7.13281V8.07031C9.375 9.13906 10.8125 9.94531 12.6875 9.94531V7.13281H9.375Z" fill="#FFCC33"/>
<path d="M9.375 6.19531V7.13281C9.375 8.20156 10.8125 9.00781 12.6875 9.00781C14.5625 9.00781 16 8.20156 16 7.13281V6.19531H9.375Z" fill="#FEA832"/>
<path d="M9.375 6.19531V7.13281C9.375 8.20156 10.8125 9.00781 12.6875 9.00781V6.19531H9.375Z" fill="#FE9923"/>
<path d="M9.375 5.25781V6.19531C9.375 7.26406 10.8125 8.07031 12.6875 8.07031C14.5625 8.07031 16 7.26406 16 6.19531V5.25781H9.375Z" fill="#FEDB41"/>
<path d="M9.375 5.25781V6.19531C9.375 7.26406 10.8125 8.07031 12.6875 8.07031V5.25781H9.375Z" fill="#FFCC33"/>
<path d="M9.375 4.32031V5.25781C9.375 6.32656 10.8125 7.13281 12.6875 7.13281C14.5625 7.13281 16 6.32656 16 5.25781V4.32031H9.375Z" fill="#FEA832"/>
<path d="M9.375 4.32031V5.25781C9.375 6.32656 10.8125 7.13281 12.6875 7.13281V4.32031H9.375Z" fill="#FE9923"/>
<path d="M9.375 3.38281V4.32031C9.375 5.38906 10.8125 6.19531 12.6875 6.19531C14.5625 6.19531 16 5.38906 16 4.32031V3.38281H9.375Z" fill="#FEDB41"/>
<path d="M9.375 3.38281V4.32031C9.375 5.38906 10.8125 6.19531 12.6875 6.19531V3.38281H9.375Z" fill="#FFCC33"/>
<path d="M9.375 2.44531V3.38281C9.375 4.45156 10.8125 5.25781 12.6875 5.25781C14.5625 5.25781 16 4.45156 16 3.38281V2.44531H9.375Z" fill="#FEA832"/>
<path d="M9.375 2.44531V3.38281C9.375 4.45156 10.8125 5.25781 12.6875 5.25781V2.44531H9.375Z" fill="#FE9923"/>
<path d="M12.6875 0.570312C14.5625 0.570312 16 1.37656 16 2.44531C16 3.51406 14.5625 4.32031 12.6875 4.32031C10.8125 4.32031 9.375 3.51406 9.375 2.44531C9.375 1.37656 10.8125 0.570312 12.6875 0.570312Z" fill="#FEDB41"/>
<path d="M9.375 2.44531C9.375 3.51406 10.8125 4.32031 12.6875 4.32031V0.570312C10.8125 0.570312 9.375 1.37656 9.375 2.44531Z" fill="#FFCC33"/>
<path d="M2.8125 11.8203V12.7578C2.8125 13.8266 4.21875 14.6328 6.09375 14.6328C7.96875 14.6328 9.375 13.8266 9.375 12.7578V11.8203H2.8125Z" fill="#FEA832"/>
<path d="M2.8125 11.8203V12.7578C2.8125 13.8266 4.21875 14.6328 6.09375 14.6328V11.8203H2.8125Z" fill="#FE9923"/>
<path d="M2.8125 10.8828V11.8203C2.8125 12.8891 4.21875 13.6953 6.09375 13.6953C7.96875 13.6953 9.375 12.8891 9.375 11.8203V10.8828H2.8125Z" fill="#FEDB41"/>
<path d="M2.8125 10.8828V11.8203C2.8125 12.8891 4.21875 13.6953 6.09375 13.6953V10.8828H2.8125Z" fill="#FFCC33"/>
<path d="M2.8125 9.94531V10.8828C2.8125 11.9516 4.21875 12.7578 6.09375 12.7578C7.96875 12.7578 9.375 11.9516 9.375 10.8828V9.94531H2.8125Z" fill="#FEA832"/>
<path d="M2.8125 9.94531V10.8828C2.8125 11.9516 4.21875 12.7578 6.09375 12.7578V9.94531H2.8125Z" fill="#FE9923"/>
<path d="M2.8125 9.00781V9.94531C2.8125 11.0141 4.21875 11.8203 6.09375 11.8203C7.96875 11.8203 9.375 11.0141 9.375 9.94531V9.00781H2.8125Z" fill="#FEDB41"/>
<path d="M2.8125 9.00781V9.94531C2.8125 11.0141 4.21875 11.8203 6.09375 11.8203V9.00781H2.8125Z" fill="#FFCC33"/>
<path d="M2.8125 8.07031V9.00781C2.8125 10.0766 4.21875 10.8828 6.09375 10.8828C7.96875 10.8828 9.375 10.0766 9.375 9.00781V8.07031H2.8125Z" fill="#FEA832"/>
<path d="M2.8125 8.07031V9.00781C2.8125 10.0766 4.21875 10.8828 6.09375 10.8828V8.07031H2.8125Z" fill="#FE9923"/>
<path d="M2.8125 7.13281V8.07031C2.8125 9.13906 4.21875 9.94531 6.09375 9.94531C7.96875 9.94531 9.375 9.13906 9.375 8.07031V7.13281H2.8125Z" fill="#FEDB41"/>
<path d="M2.8125 7.13281V8.07031C2.8125 9.13906 4.21875 9.94531 6.09375 9.94531V7.13281H2.8125Z" fill="#FFCC33"/>
<path d="M2.8125 6.19531V7.13281C2.8125 8.20156 4.21875 9.00781 6.09375 9.00781C7.96875 9.00781 9.375 8.20156 9.375 7.13281V6.19531H2.8125Z" fill="#FEA832"/>
<path d="M2.8125 6.19531V7.13281C2.8125 8.20156 4.21875 9.00781 6.09375 9.00781V6.19531H2.8125Z" fill="#FE9923"/>
<path d="M2.8125 5.25781V6.19531C2.8125 7.26406 4.21875 8.07031 6.09375 8.07031C7.96875 8.07031 9.375 7.26406 9.375 6.19531V5.25781H2.8125Z" fill="#FEDB41"/>
<path d="M2.8125 5.25781V6.19531C2.8125 7.26406 4.21875 8.07031 6.09375 8.07031V5.25781H2.8125Z" fill="#FFCC33"/>
<path d="M2.8125 4.32031V5.25781C2.8125 6.32656 4.21875 7.13281 6.09375 7.13281C7.96875 7.13281 9.375 6.32656 9.375 5.25781V4.32031H2.8125Z" fill="#FEA832"/>
<path d="M2.8125 4.32031V5.25781C2.8125 6.32656 4.21875 7.13281 6.09375 7.13281V4.32031H2.8125Z" fill="#FE9923"/>
<path d="M6.09375 2.44531C7.96875 2.44531 9.375 3.25156 9.375 4.32031C9.375 5.38906 7.96875 6.19531 6.09375 6.19531C4.21875 6.19531 2.8125 5.38906 2.8125 4.32031C2.8125 3.25156 4.21875 2.44531 6.09375 2.44531Z" fill="#FEDB41"/>
<path d="M2.8125 4.32031C2.8125 5.38906 4.21875 6.19531 6.09375 6.19531V2.44531C4.21875 2.44531 2.8125 3.25156 2.8125 4.32031Z" fill="#FFCC33"/>
<path d="M3.75 7.92969C5.82191 7.92969 7.5 9.60784 7.5 11.6797C7.5 13.7516 5.82191 15.4297 3.75 15.4297C1.67809 15.4297 0 13.7516 0 11.6797C0 9.60784 1.67809 7.92969 3.75 7.92969Z" fill="#FEA832"/>
<path d="M0 11.6797C0 13.7516 1.67809 15.4297 3.75 15.4297V7.92969C1.67809 7.92969 0 9.60784 0 11.6797Z" fill="#FE9923"/>
<path d="M3.75 8.86719C5.29691 8.86719 6.5625 10.1328 6.5625 11.6797C6.5625 13.2266 5.29691 14.4922 3.75 14.4922C2.20309 14.4922 0.9375 13.2266 0.9375 11.6797C0.9375 10.1328 2.20309 8.86719 3.75 8.86719Z" fill="#FEDB41"/>
<path d="M0.9375 11.6797C0.9375 13.2266 2.20309 14.4922 3.75 14.4922V8.86719C2.20309 8.86719 0.9375 10.1328 0.9375 11.6797Z" fill="#FFCC33"/>
</svg>
